<svg width="20" height="20" viewBox="0 0 20 20" fill="none" xmlns="http://www.w3.org/2000/svg">
<path d="M9.99967 3.75H7.91634C6.76575 3.75 5.83301 4.68274 5.83301 5.83333C5.83301 6.98392 6.76575 7.91667 7.91634 7.91667M9.99967 3.75V7.91667M9.99967 3.75H12.083C13.2336 3.75 14.1663 4.68274 14.1663 5.83333C14.1663 6.98392 13.2336 7.91667 12.083 7.91667M7.91634 7.91667H9.99967M7.91634 7.91667C6.76575 7.91667 5.83301 8.84941 5.83301 10C5.83301 11.1506 6.76575 12.0833 7.91634 12.0833M9.99967 7.91667H12.083M9.99967 7.91667V12.0833M12.083 7.91667C13.2336 7.91667 14.1663 8.84941 14.1663 10C14.1663 11.1506 13.2336 12.0833 12.083 12.0833C10.9324 12.0833 9.99967 11.1506 9.99967 10C9.99967 8.84941 10.9324 7.91667 12.083 7.91667ZM9.99967 12.0833H7.91634M9.99967 12.0833V14.1667C9.99967 15.3172 9.06693 16.25 7.91634 16.25C6.76575 16.25 5.83301 15.3172 5.83301 14.1667C5.83301 13.0161 6.76575 12.0833 7.91634 12.0833" stroke="black" stroke-opacity="0.9" stroke-width="1.25" stroke-linecap="round" stroke-linejoin="round"/>
</svg>
