<svg width="20" height="20" viewBox="0 0 20 20" fill="none" xmlns="http://www.w3.org/2000/svg">
<path d="M8.57161 13.3301L7.14454 11.9982L8.57161 10.6663M11.4278 10.6663L12.8548 11.9982L11.4278 13.3301M10.7132 4.00488H7.28744C6.48796 4.00488 6.08822 4.00488 5.78242 4.14976C5.5136 4.27766 5.29574 4.48149 5.15883 4.73228C5.00293 5.01704 5.00293 5.39073 5.00293 6.13611V13.8637C5.00293 14.609 5.00293 14.9827 5.15883 15.2675C5.29574 15.5183 5.5136 15.7221 5.78242 15.85C6.08822 15.9949 6.48796 15.9949 7.28744 15.9949H12.7119C13.5114 15.9949 13.9111 15.9949 14.2169 15.85C14.4858 15.7221 14.7036 15.5183 14.8405 15.2675C14.9964 14.9827 14.9964 14.609 14.9964 13.8637V8.00155M10.7132 4.00488L14.9964 8.00155M10.7132 4.00488V7.33511C10.7132 7.7038 11.033 8.00155 11.4278 8.00155H14.9964" stroke="black" stroke-opacity="0.9" stroke-width="1.24919" stroke-linecap="round" stroke-linejoin="round"/>
</svg>
