<svg width="20" height="20" viewBox="0 0 20 20" fill="none" xmlns="http://www.w3.org/2000/svg">
<path d="M9.99967 14.1667H10.0066M9.30523 5.83333H10.6941M8.05523 16.25H11.9441C12.722 16.25 13.1109 16.25 13.408 16.0986C13.6693 15.9655 13.8818 15.753 14.015 15.4917C14.1663 15.1946 14.1663 14.8057 14.1663 14.0277V5.97223C14.1663 5.19438 14.1663 4.80545 14.015 4.50835C13.8818 4.24701 13.6693 4.03454 13.408 3.90138C13.1109 3.75 12.722 3.75 11.9441 3.75H8.05523C7.27738 3.75 6.88846 3.75 6.59135 3.90138C6.33002 4.03454 6.11755 4.24701 5.98439 4.50835C5.83301 4.80545 5.83301 5.19438 5.83301 5.97223V14.0277C5.83301 14.8057 5.83301 15.1946 5.98439 15.4917C6.11755 15.753 6.33002 15.9655 6.59135 16.0986C6.88846 16.25 7.27738 16.25 8.05523 16.25Z" stroke="black" stroke-opacity="0.9" stroke-width="1.25" stroke-linecap="round" stroke-linejoin="round"/>
</svg>
