<svg width="20" height="20" viewBox="0 0 20 20" fill="none" xmlns="http://www.w3.org/2000/svg">
<path d="M6.52777 16.25H13.4723M3.75 10.6944H16.25M8.61111 13.4723L7.91667 16.25M11.3889 13.4723L12.0833 16.25M5.97223 13.4723H14.0277C14.8057 13.4723 15.1946 13.4722 15.4917 13.3208C15.753 13.1877 15.9655 12.9752 16.0986 12.7139C16.25 12.4167 16.25 12.0278 16.25 11.25V5.97223C16.25 5.19438 16.25 4.80545 16.0986 4.50835C15.9655 4.24701 15.753 4.03454 15.4917 3.90138C15.1946 3.75 14.8057 3.75 14.0277 3.75H5.97223C5.19438 3.75 4.80545 3.75 4.50835 3.90138C4.24701 4.03454 4.03454 4.24701 3.90138 4.50835C3.75 4.80545 3.75 5.19438 3.75 5.97223V11.25C3.75 12.0278 3.75 12.4167 3.90138 12.7139C4.03454 12.9752 4.24701 13.1877 4.50835 13.3208C4.80545 13.4722 5.19438 13.4723 5.97223 13.4723Z" stroke="black" stroke-opacity="0.9" stroke-width="1.25" stroke-linecap="round" stroke-linejoin="round"/>
</svg>
