<svg width="20" height="20" viewBox="0 0 20 20" fill="none" xmlns="http://www.w3.org/2000/svg">
<g clip-path="url(#clip0_1713_3507)">
<path d="M4.21502 10.7282C4.18525 10.4895 4.16992 10.2463 4.16992 9.99957C4.16992 6.78022 6.77973 4.17041 9.99909 4.17041C11.8211 4.17041 13.4479 5.00637 14.5168 6.31566M14.5168 6.31566V4.17041M14.5168 6.31566V6.3563L12.3309 6.35635M15.7832 9.27093C15.8129 9.50963 15.8283 9.75282 15.8283 9.99957C15.8283 13.219 13.2185 15.8287 9.99909 15.8287C8.25807 15.8287 6.69533 15.0655 5.62722 13.8553M5.62722 13.8553V13.6428H7.81315M5.62722 13.8553V15.8287" stroke="black" stroke-opacity="0.9" stroke-width="1.31156" stroke-linecap="round" stroke-linejoin="round"/>
</g>
<defs>
<clipPath id="clip0_1713_3507">
<rect width="13.99" height="13.99" fill="white" transform="translate(3.00488 3.00488)"/>
</clipPath>
</defs>
</svg>
