<svg width="20" height="20" viewBox="0 0 20 20" fill="none" xmlns="http://www.w3.org/2000/svg">
<path d="M15.444 3V6.111M13.889 4.556H17M15.444 13.889V17M13.889 15.444H17M8.444 4.556L7.301 7.454C7.155 7.825 7.082 8.01 6.97 8.167C6.871 8.305 6.75 8.426 6.611 8.525C6.455 8.637 6.269 8.71 5.899 8.857L3 10L5.899 11.143C6.27 11.29 6.455 11.363 6.611 11.475C6.75 11.573 6.871 11.695 6.97 11.833C7.082 11.99 7.155 12.175 7.301 12.546L8.444 15.444L9.588 12.546C9.734 12.175 9.807 11.99 9.919 11.833C10.018 11.695 10.139 11.573 10.278 11.475C10.434 11.363 10.62 11.29 10.99 11.143L13.889 10L10.99 8.857C10.619 8.71 10.434 8.637 10.278 8.525C10.139 8.426 10.018 8.305 9.919 8.167C9.807 8.01 9.734 7.825 9.588 7.454L8.444 4.556Z" stroke="black" stroke-opacity="0.9" stroke-width="1.25" stroke-linecap="round" stroke-linejoin="round"/>
</svg>
