<svg width="20" height="20" viewBox="0 0 20 20" fill="none" xmlns="http://www.w3.org/2000/svg">
<path d="M5.21535 6.89525V9.70226M8.68758 3.38647V6.1935M14.2431 13.2111V16.0181M3.82647 8.29876H6.60425M7.29869 4.78998H10.0765M12.8543 14.6145H15.632M11.4654 6.89525L13.4295 8.88011M15.2964 4.61182L15.6892 5.00879C15.9642 5.2867 16.1017 5.42566 16.1532 5.58588C16.1985 5.72683 16.1985 5.87865 16.1532 6.01959C16.1017 6.17982 15.9642 6.31878 15.6892 6.59668L6.27471 16.1103C5.9997 16.3882 5.8622 16.5271 5.70363 16.5792C5.56415 16.625 5.41391 16.625 5.27445 16.5792C5.11588 16.5271 4.97837 16.3882 4.70336 16.1103L4.31053 15.7133C4.03551 15.4354 3.89801 15.2965 3.84649 15.1362C3.80117 14.9952 3.80117 14.8434 3.84649 14.7024C3.89801 14.5423 4.03551 14.4033 4.31053 14.1254L13.725 4.61182C14 4.33392 14.1375 4.19496 14.2961 4.14289C14.4355 4.0971 14.5858 4.0971 14.7253 4.14289C14.8839 4.19496 15.0214 4.33392 15.2964 4.61182Z" stroke="black" stroke-opacity="0.9" stroke-width="1.25641" stroke-linecap="round" stroke-linejoin="round"/>
</svg>
