<svg width="20" height="20" viewBox="0 0 20 20" fill="none" xmlns="http://www.w3.org/2000/svg">
<path d="M7.67155 10.7724C7.67155 12.0285 8.43001 13.1607 9.59217 13.6414C10.7543 14.122 12.0924 13.8572 12.9818 12.9689M7.67155 10.7724H4.56077M7.67155 10.7724C7.67155 9.60626 8.32508 8.53902 9.36334 8.0074M12.9818 12.9689C13.5663 12.3873 13.8941 11.5968 13.8931 10.7724C13.8941 9.94801 13.5663 9.15758 12.9818 8.57599M12.9818 12.9689L15.6768 15.6599M4.56077 10.7724C4.56077 11.2011 4.21202 11.5489 3.78233 11.5489C3.35263 11.5489 3.00488 11.2011 3.00488 10.7724C3.00488 10.3427 3.35263 9.99598 3.78233 9.99598C4.21202 9.99598 4.56077 10.3427 4.56077 10.7724ZM9.36334 8.0074L7.96034 4.5039M9.36334 8.0074C9.78903 7.78856 10.2717 7.66564 10.7823 7.66564C11.6077 7.66465 12.3992 7.99241 12.9818 8.57599M15.6768 5.88492C15.475 5.69006 15.394 5.40126 15.465 5.12946C15.5359 4.85765 15.7478 4.6458 16.0206 4.57485C16.2924 4.5039 16.5812 4.58485 16.777 4.7867C17.0708 5.09148 17.0668 5.57514 16.767 5.87492C16.4673 6.17471 15.9816 6.17871 15.6768 5.88492ZM15.6768 5.88492L12.9818 8.57599M7.96034 4.5039C8.35906 4.34402 8.55292 3.89234 8.39403 3.49363C8.23415 3.09491 7.78147 2.90105 7.38175 3.06094C6.98304 3.21982 6.78818 3.6725 6.94806 4.07121C7.10695 4.46993 7.55963 4.66379 7.95934 4.5049L7.96034 4.5039ZM15.6768 15.6599C15.475 15.8548 15.394 16.1436 15.465 16.4154C15.5359 16.6862 15.7478 16.899 16.0206 16.97C16.2924 17.0409 16.5812 16.96 16.777 16.7581C17.0708 16.4534 17.0668 15.9687 16.767 15.6689C16.4673 15.3691 15.9816 15.3651 15.6768 15.6599Z" stroke="black" stroke-opacity="0.9" stroke-width="1.24911" stroke-linecap="round" stroke-linejoin="round"/>
</svg>
